<svg xmlns="http://www.w3.org/2000/svg" width="1024" height="1024" viewBox="0 0 1024 1024">
  <defs>
    <linearGradient id="bg" x1="170" y1="98" x2="854" y2="926" gradientUnits="userSpaceOnUse">
      <stop offset="0" stop-color="#0f172a"/>
      <stop offset="1" stop-color="#0b3b3b"/>
    </linearGradient>
    <linearGradient id="shield" x1="316" y1="194" x2="708" y2="812" gradientUnits="userSpaceOnUse">
      <stop offset="0" stop-color="#5eead4"/>
      <stop offset="1" stop-color="#14b8a6"/>
    </linearGradient>
    <filter id="shadow" x="-20%" y="-20%" width="140%" height="140%">
      <feDropShadow dx="0" dy="32" stdDeviation="34" flood-color="#020617" flood-opacity="0.42"/>
    </filter>
  </defs>
  <rect width="1024" height="1024" fill="#0f172a"/>
  <rect width="1024" height="1024" rx="228" fill="url(#bg)"/>
  <path d="M512 150 238 260v206c0 172 108 326 274 408 166-82 274-236 274-408V260L512 150Z" fill="#071f2a" opacity="0.68" filter="url(#shadow)"/>
  <path d="M512 188 284 280v172c0 142 88 272 228 346 140-74 228-204 228-346V280L512 188Z" fill="url(#shield)"/>
  <path d="M512 250 342 320v132c0 108 63 210 170 276 107-66 170-168 170-276V320L512 250Z" fill="#0f172a" opacity="0.94"/>
  <path d="M428 470v-48c0-48 37-86 84-86s84 38 84 86v48h-54v-48c0-19-12-34-30-34s-30 15-30 34v48h-54Z" fill="#ccfbf1"/>
  <rect x="382" y="464" width="260" height="196" rx="48" fill="#ecfdf5"/>
  <circle cx="512" cy="546" r="32" fill="#0f766e"/>
  <path d="M494 572h36l18 54h-72l18-54Z" fill="#0f766e"/>
  <g fill="#99f6e4">
    <circle cx="316" cy="750" r="24"/>
    <circle cx="394" cy="750" r="24"/>
    <circle cx="472" cy="750" r="24"/>
    <circle cx="550" cy="750" r="24"/>
    <circle cx="628" cy="750" r="24"/>
    <circle cx="706" cy="750" r="24"/>
  </g>
</svg>
